# xmcd
#
# Track frame offsets: 
#        150
#        25731
#        59456
#        80884
#        105112
#        130649
#        149858
#        168905
#        197514
#        222636
#        259939
#
# Disc length: 3753 seconds
#
# Revision: 0
# Processed by: cddbd v1.5.2PL0 Copyright (c) Steve Scherf et al.
# Submitted via: ExactAudioCopy v0.95b3
#
DISCID=a00ea70b
DTITLE=Diamanda Galas - The Rio Theatre, Santa Cruz, CA 24.10.2006 [Bo
DTITLE=otleg]
DYEAR=2006
DGENRE=Blues
TTITLE0=My World Is Empty Without You
TTITLE1=So Sorry
TTITLE2=Interlude (Time)
TTITLE3=You Don't Know What Love Is
TTITLE4=Autumn Leaves
TTITLE5=Supplica a mi madre
TTITLE6=Moi, je m'ennuie
TTITLE7=You're My Thrill
TTITLE8=Padam... Padam
TTITLE9=The Thrill Is Gone
TTITLE10=Let My People Go
EXTD=
EXTT0=
EXTT1=
EXTT2=
EXTT3=
EXTT4=
EXTT5=
EXTT6=
EXTT7=
EXTT8=
EXTT9=
EXTT10=
PLAYORDER=
